# xmcd
#
# Track frame offsets: 
#        150
#        11662
#        20745
#        27967
#        36302
#        44160
#        53930
#        62092
#        73522
#        81017
#        89027
#        98435
#        111420
#        118665
#        126832
#        139082
#        147277
#        157585
#        164650
#        179252
#        186282
#        197177
#        209417
#        217947
#        229092
#        237547
#        251382
#        260925
#        271947
#        280837
#        292597
#        305680
#        318075
#        334512
#
# Disc length: 4602 seconds
#
# Revision: 0
# Processed by: cddbd v1.5.2PL0 Copyright (c) Steve Scherf et al.
# Submitted via: ExactAudioCopy v0.95b3
#
DISCID=fd11f822
DTITLE=Dave Clark Five  - The Complete History - Vol. 2  Coast To Coas
DTITLE=t-Weekend In London-Having A Wild Weekend
DYEAR=1900
DGENRE=
TTITLE0=Any Way You Want It
TTITLE1=Give Me Love
TTITLE2=I Can't Stand It
TTITLE3=I'm Left Without You
TTITLE4=Everybody Knows (I Still Love You)
TTITLE5=Crying Over You
TTITLE6=Say You Want Me
TTITLE7=When
TTITLE8=Don't You Know
TTITLE9=To Me
TTITLE10=It's Not True
TTITLE11=Come Home
TTITLE12=We'll Be Running
TTITLE13=Blue Suede Shoes
TTITLE14=Hurting Inside
TTITLE15=I'll Never Know
TTITLE16='Til The Right One Comes Along
TTITLE17=I'm Thinking
TTITLE18=Your Turn To Cry
TTITLE19=Little Bitty Pretty One
TTITLE20=Remember, It's Me
TTITLE21=Mighty Good Loving
TTITLE22=Having A Wild Weekend
TTITLE23=New Kind Of Love
TTITLE24=Dum-Dee-Dee-Dum
TTITLE25=I Said I Was Sorry
TTITLE26=No Stopping
TTITLE27=Don't Be Taken In
TTITLE28=Catch Us If You Can
TTITLE29=When I'm Alone
TTITLE30=If You Come Back
TTITLE31=Sweet Memories
TTITLE32=Don't You Realize
TTITLE33=On The Move
EXTD=
EXTT0=
EXTT1=
EXTT2=
EXTT3=
EXTT4=
EXTT5=
EXTT6=
EXTT7=
EXTT8=
EXTT9=
EXTT10=
EXTT11=
EXTT12=
EXTT13=
EXTT14=
EXTT15=
EXTT16=
EXTT17=
EXTT18=
EXTT19=
EXTT20=
EXTT21=
EXTT22=
EXTT23=
EXTT24=
EXTT25=
EXTT26=
EXTT27=
EXTT28=
EXTT29=
EXTT30=
EXTT31=
EXTT32=
EXTT33=
PLAYORDER=
